<?xml version="1.0" standalone="no"?><!DOCTYPE svg PUBLIC "-//W3C//DTD SVG 1.1//EN" "http://www.w3.org/Graphics/SVG/1.1/DTD/svg11.dtd"><svg t="1546935922488" class="icon" style="" viewBox="0 0 1024 1024" version="1.1" xmlns="http://www.w3.org/2000/svg" p-id="3682" xmlns:xlink="http://www.w3.org/1999/xlink" width="200" height="200"><defs><style type="text/css"></style></defs><path d="M512 143.933133c-198.502983 0-359.445512 160.906713-359.445512 359.445512 0 198.462051 160.906713 359.445512 359.445512 359.445512 198.421118 0 359.445512-160.906713 359.445512-359.445512S710.421118 143.933133 512 143.933133L512 143.933133zM512 808.993135c-168.769798 0-305.651328-136.808876-305.651328-305.656445 0-168.766728 136.845715-305.652352 305.651328-305.652352 168.80766 0 305.651328 136.808876 305.651328 305.652352C817.651328 672.184259 680.769798 808.993135 512 808.993135L512 808.993135zM512 808.993135M515.823072 680.167071l-7.647167 0c-15.032368 0-27.218922-12.186554-27.218922-27.218922L480.956983 449.501574c0-15.032368 12.186554-27.218922 27.218922-27.218922l7.647167 0c15.032368 0 27.218922 12.186554 27.218922 27.218922l0 203.445552C543.043017 667.980517 530.856463 680.167071 515.823072 680.167071zM515.885494 387.30707l-7.772011 0c-15.278985 0-27.665083-12.386098-27.665083-27.665083l0-7.772011c0-15.278985 12.386098-27.665083 27.665083-27.665083l7.772011 0c15.278985 0 27.665083 12.386098 27.665083 27.665083l0 7.772011C543.550577 374.920972 531.164478 387.30707 515.885494 387.30707z" p-id="3683" fill="#FF6600"></path></svg>